<svg id="Layer_1" data-name="Layer 1" xmlns="http://www.w3.org/2000/svg" viewBox="0 0 1100 1100"><defs><style>.cls-1{fill:#fff;}.cls-2{fill:#13213c;}</style></defs><title>CARing - logo scalable</title><circle class="cls-1" cx="550" cy="550" r="550"/><polygon class="cls-1" points="476.45 971.41 27.79 1100 140.76 647.15 476.45 971.41"/><circle class="cls-2" cx="549.79" cy="550" r="480.87"/><polygon class="cls-2" points="572.28 872.16 123.61 1000.75 236.58 547.9 572.28 872.16"/><path class="cls-1" d="M600,246.19c-195.09,0-353.81,158.72-353.81,353.81S404.91,953.81,600,953.81,953.81,795.09,953.81,600,795.09,246.19,600,246.19ZM492.27,842.58A264.89,264.89,0,0,1,342,662.32c39.29-37.76,102.37-42.84,146.93-12.77,7.89,19.31,22.33,36.24,41.28,48.42a117.59,117.59,0,0,1-37.94,144.61ZM510.53,541H341c26.66-119.46,135.08-207.52,259-207.52,122.84,0,231.08,88.09,258.6,207.58H689.55c-21.76-18.84-54-29.54-89.55-29.54S532.28,522.22,510.53,541Zm197.2,301.56A117.53,117.53,0,0,1,669.82,698c18.92-12.18,33.35-29.11,41.23-48.38,44.49-30.08,107.62-25,147,12.75A264.89,264.89,0,0,1,707.73,842.58Z" transform="translate(-50 -50)"/></svg>